{
  "accessors": [
    {
      "bufferView": 2,
      "componentType": 5126,
      "count": 91,
      "max": [
        108.04505920410156,
        48.15805435180664,
        465.3182678222656
      ],
      "min": [
        5.1258087158203125,
        -0.336761474609375,
        360.98260498046875
      ],
      "type": "VEC3"
    },
    {
      "bufferView": 2,
      "byteOffset": 1092,
      "componentType": 5126,
      "count": 91,
      "max": [
        0.9660125970840454,
        1.0,
        0.9793093800544739
      ],
      "min": [
        -0.9660124778747559,
        -0.22103175520896912,
        -0.9793091416358948
      ],
      "type": "VEC3"
    },
    {
      "bufferView": 1,
      "componentType": 5126,
      "count": 91,
      "max": [
        0.6925334334373474,
        0.7167860269546509
      ],
      "min": [
        0.0036363601684570313,
        0.1459469050168991
      ],
      "type": "VEC2"
    },
    {
      "bufferView": 0,
      "componentType": 5125,
      "count": 210,
      "type": "SCALAR"
    },
    {
      "bufferView": 2,
      "byteOffset": 2184,
      "componentType": 5126,
      "count": 80,
      "max": [
        107.65483093261719,
        39.7506103515625,
        465.28704833984375
      ],
      "min": [
        5.3615264892578125,
        25.19683837890625,
        360.72491455078125
      ],
      "type": "VEC3"
    },
    {
      "bufferView": 2,
      "byteOffset": 3144,
      "componentType": 5126,
      "count": 80,
      "max": [
        0.9749875068664551,
        0.711464524269104,
        0.9826454520225525
      ],
      "min": [
        -0.9731637239456177,
        -0.8674991130828857,
        -0.9814345240592957
      ],
      "type": "VEC3"
    },
    {
      "bufferView": 1,
      "byteOffset": 728,
      "componentType": 5126,
      "count": 80,
      "max": [
        0.9911550283432007,
        0.723773181438446
      ],
      "min": [
        0.7117125988006592,
        0.5048309564590454
      ],
      "type": "VEC2"
    },
    {
      "bufferView": 0,
      "byteOffset": 840,
      "componentType": 5125,
      "count": 228,
      "type": "SCALAR"
    },
    {
      "bufferView": 2,
      "byteOffset": 4104,
      "componentType": 5126,
      "count": 80,
      "max": [
        103.183837890625,
        23.195404052734375,
        460.51336669921875
      ],
      "min": [
        9.331924438476563,
        8.64166259765625,
        364.5798645019531
      ],
      "type": "VEC3"
    },
    {
      "bufferView": 2,
      "byteOffset": 5064,
      "componentType": 5126,
      "count": 80,
      "max": [
        0.9758183360099792,
        0.6809682250022888,
        0.9840421080589294
      ],
      "min": [
        -0.9738504886627197,
        -0.8479939103126526,
        -0.9832649230957031
      ],
      "type": "VEC3"
    },
    {
      "bufferView": 1,
      "byteOffset": 1368,
      "componentType": 5126,
      "count": 80,
      "max": [
        0.9911550283432007,
        0.723773181438446
      ],
      "min": [
        0.7117125988006592,
        0.5048309564590454
      ],
      "type": "VEC2"
    },
    {
      "bufferView": 0,
      "byteOffset": 1752,
      "componentType": 5125,
      "count": 228,
      "type": "SCALAR"
    },
    {
      "bufferView": 2,
      "byteOffset": 6024,
      "componentType": 5126,
      "count": 34788,
      "max": [
        762.8453369140625,
        512.8432006835938,
        702.2122192382813
      ],
      "min": [
        -613.6823120117188,
        -61.83315658569336,
        -498.79962158203125
      ],
      "type": "VEC3"
    },
    {
      "bufferView": 2,
      "byteOffset": 423480,
      "componentType": 5126,
      "count": 34788,
      "max": [
        1.0,
        1.0,
        1.0
      ],
      "min": [
        -1.0,
        -1.0,
        -1.0
      ],
      "type": "VEC3"
    },
    {
      "bufferView": 1,
      "byteOffset": 2008,
      "componentType": 5126,
      "count": 34788,
      "max": [
        0.999211847782135,
        0.9986964464187622
      ],
      "min": [
        0.001530289649963379,
        -0.00017542764544487
      ],
      "type": "VEC2"
    },
    {
      "bufferView": 0,
      "byteOffset": 2664,
      "componentType": 5125,
      "count": 73647,
      "type": "SCALAR"
    },
    {
      "bufferView": 2,
      "byteOffset": 840936,
      "componentType": 5126,
      "count": 2488,
      "max": [
        827.4567260742188,
        312.0584716796875,
        821.0638427734375
      ],
      "min": [
        -768.7451171875,
        -92.24971008300781,
        -632.8433227539063
      ],
      "type": "VEC3"
    },
    {
      "bufferView": 2,
      "byteOffset": 870792,
      "componentType": 5126,
      "count": 2488,
      "max": [
        0.9981729984283447,
        1.0,
        0.9993059635162354
      ],
      "min": [
        -0.9893292188644409,
        -0.07310633361339569,
        -0.9910494089126587
      ],
      "type": "VEC3"
    },
    {
      "bufferView": 1,
      "byteOffset": 280312,
      "componentType": 5126,
      "count": 2488,
      "max": [
        0.9864336848258972,
        0.9919864535331726
      ],
      "min": [
        0.006455153226852417,
        0.007725119590759277
      ],
      "type": "VEC2"
    },
    {
      "bufferView": 0,
      "byteOffset": 297252,
      "componentType": 5125,
      "count": 8487,
      "type": "SCALAR"
    },
    {
      "bufferView": 2,
      "byteOffset": 900648,
      "componentType": 5126,
      "count": 251,
      "max": [
        -205.88795471191406,
        48.15805435180664,
        465.3182678222656
      ],
      "min": [
        -308.80718994140625,
        -0.336761474609375,
        360.72491455078125
      ],
      "type": "VEC3"
    },
    {
      "bufferView": 2,
      "byteOffset": 903660,
      "componentType": 5126,
      "count": 251,
      "max": [
        0.975818395614624,
        1.0,
        0.9840421080589294
      ],
      "min": [
        -0.9738505482673645,
        -0.8674989938735962,
        -0.9832647442817688
      ],
      "type": "VEC3"
    },
    {
      "bufferView": 1,
      "byteOffset": 300216,
      "componentType": 5126,
      "count": 251,
      "max": [
        0.9911550283432007,
        0.723773181438446
      ],
      "min": [
        0.0036363601684570313,
        0.1459469050168991
      ],
      "type": "VEC2"
    },
    {
      "bufferView": 0,
      "byteOffset": 331200,
      "componentType": 5125,
      "count": 666,
      "type": "SCALAR"
    },
    {
      "bufferView": 2,
      "byteOffset": 906672,
      "componentType": 5126,
      "count": 16,
      "max": [
        0.7161948084831238,
        2.842170943040401e-14,
        0.8037068843841553
      ],
      "min": [
        -0.7891278266906738,
        -2.842170943040401e-14,
        -0.7311865091323853
      ],
      "type": "VEC3"
    },
    {
      "bufferView": 2,
      "byteOffset": 906864,
      "componentType": 5126,
      "count": 16,
      "max": [
        2.1588389713042555e-14,
        1.0,
        -2.867779544244624e-15
      ],
      "min": [
        -2.48002031237593e-14,
        1.0,
        -3.0434944115701607e-14
      ],
      "type": "VEC3"
    },
    {
      "bufferView": 1,
      "byteOffset": 302224,
      "componentType": 5126,
      "count": 16,
      "max": [
        0.6678624153137207,
        0.4903717637062073
      ],
      "min": [
        0.5136804580688477,
        0.3625193238258362
      ],
      "type": "VEC2"
    },
    {
      "bufferView": 0,
      "byteOffset": 333864,
      "componentType": 5125,
      "count": 24,
      "type": "SCALAR"
    },
    {
      "bufferView": 2,
      "byteOffset": 907056,
      "componentType": 5126,
      "count": 320,
      "max": [
        -208.8400421142578,
        131.31607055664063,
        26.07124137878418
      ],
      "min": [
        -280.8750305175781,
        1.561117172241211,
        17.047077178955078
      ],
      "type": "VEC3"
    },
    {
      "bufferView": 2,
      "byteOffset": 910896,
      "componentType": 5126,
      "count": 320,
      "max": [
        1.0,
        1.0,
        1.0
      ],
      "min": [
        -1.0,
        -1.0,
        -1.0
      ],
      "type": "VEC3"
    },
    {
      "bufferView": 1,
      "byteOffset": 302352,
      "componentType": 5126,
      "count": 320,
      "max": [
        0.8976840376853943,
        0.9210656881332397
      ],
      "min": [
        0.841421902179718,
        0.8589620590209961
      ],
      "type": "VEC2"
    },
    {
      "bufferView": 0,
      "byteOffset": 333960,
      "componentType": 5125,
      "count": 480,
      "type": "SCALAR"
    },
    {
      "bufferView": 2,
      "byteOffset": 914736,
      "componentType": 5126,
      "count": 320,
      "max": [
        -208.8400421142578,
        131.31607055664063,
        26.07124137878418
      ],
      "min": [
        -278.3516845703125,
        3.7856502532958984,
        17.047077178955078
      ],
      "type": "VEC3"
    },
    {
      "bufferView": 2,
      "byteOffset": 918576,
      "componentType": 5126,
      "count": 320,
      "max": [
        1.0,
        1.0,
        1.0
      ],
      "min": [
        -1.0,
        -1.0,
        -1.0
      ],
      "type": "VEC3"
    },
    {
      "bufferView": 1,
      "byteOffset": 304912,
      "componentType": 5126,
      "count": 320,
      "max": [
        0.8976840376853943,
        0.9210656881332397
      ],
      "min": [
        0.841421902179718,
        0.8589620590209961
      ],
      "type": "VEC2"
    },
    {
      "bufferView": 0,
      "byteOffset": 335880,
      "componentType": 5125,
      "count": 480,
      "type": "SCALAR"
    },
    {
      "bufferView": 2,
      "byteOffset": 922416,
      "componentType": 5126,
      "count": 320,
      "max": [
        -208.8400421142578,
        131.31607055664063,
        26.07124137878418
      ],
      "min": [
        -280.8750305175781,
        1.561117172241211,
        17.047077178955078
      ],
      "type": "VEC3"
    },
    {
      "bufferView": 2,
      "byteOffset": 926256,
      "componentType": 5126,
      "count": 320,
      "max": [
        1.0,
        1.0,
        1.0
      ],
      "min": [
        -1.0,
        -1.0,
        -1.0
      ],
      "type": "VEC3"
    },
    {
      "bufferView": 1,
      "byteOffset": 307472,
      "componentType": 5126,
      "count": 320,
      "max": [
        0.8976840376853943,
        0.9210656881332397
      ],
      "min": [
        0.841421902179718,
        0.8589620590209961
      ],
      "type": "VEC2"
    },
    {
      "bufferView": 0,
      "byteOffset": 337800,
      "componentType": 5125,
      "count": 480,
      "type": "SCALAR"
    }
  ],
  "asset": {
    "extras": {
      "author": "Seppe Verbeken (https://sketchfab.com/CreeperFreaker)",
      "license": "CC-BY-4.0 (http://creativecommons.org/licenses/by/4.0/)",
      "source": "https://sketchfab.com/3d-models/greek-shield-blacksmith-8e4376555ede4c8d8fff7abba0d017f7",
      "title": "Greek Shield Blacksmith"
    },
    "generator": "Sketchfab-12.67.0",
    "version": "2.0"
  },
  "bufferViews": [
    {
      "buffer": 0,
      "byteLength": 339720,
      "name": "floatBufferViews",
      "target": 34963
    },
    {
      "buffer": 0,
      "byteLength": 310032,
      "byteOffset": 339720,
      "byteStride": 8,
      "name": "floatBufferViews",
      "target": 34962
    },
    {
      "buffer": 0,
      "byteLength": 930096,
      "byteOffset": 649752,
      "byteStride": 12,
      "name": "floatBufferViews",
      "target": 34962
    }
  ],
  "buffers": [
    {
      "byteLength": 1579848,
      "uri": "scene.bin"
    }
  ],
  "images": [
    {
      "uri": "textures/BC_MainObjects_baseColor.jpeg"
    },
    {
      "uri": "textures/BC_Vegetation_baseColor.png"
    }
  ],
  "materials": [
    {
      "doubleSided": true,
      "name": "BC_MainObjects",
      "pbrMetallicRoughness": {
        "baseColorTexture": {
          "index": 0
        },
        "metallicFactor": 0.0
      }
    },
    {
      "doubleSided": true,
      "name": "BC_Vegetation",
      "pbrMetallicRoughness": {
        "baseColorTexture": {
          "index": 1
        },
        "metallicFactor": 0.0
      }
    }
  ],
  "meshes": [
    {
      "name": "polySurface113_BC_MainObjects_0",
      "primitives": [
        {
          "attributes": {
            "NORMAL": 1,
            "POSITION": 0,
            "TEXCOORD_0": 2
          },
          "indices": 3,
          "material": 0,
          "mode": 4
        }
      ]
    },
    {
      "name": "polySurface115_BC_MainObjects_0",
      "primitives": [
        {
          "attributes": {
            "NORMAL": 5,
            "POSITION": 4,
            "TEXCOORD_0": 6
          },
          "indices": 7,
          "material": 0,
          "mode": 4
        }
      ]
    },
    {
      "name": "polySurface116_BC_MainObjects_0",
      "primitives": [
        {
          "attributes": {
            "NORMAL": 9,
            "POSITION": 8,
            "TEXCOORD_0": 10
          },
          "indices": 11,
          "material": 0,
          "mode": 4
        }
      ]
    },
    {
      "name": "polySurface117_BC_MainObjects_0",
      "primitives": [
        {
          "attributes": {
            "NORMAL": 13,
            "POSITION": 12,
            "TEXCOORD_0": 14
          },
          "indices": 15,
          "material": 0,
          "mode": 4
        }
      ]
    },
    {
      "name": "polySurface117_BC_Vegetation_0",
      "primitives": [
        {
          "attributes": {
            "NORMAL": 17,
            "POSITION": 16,
            "TEXCOORD_0": 18
          },
          "indices": 19,
          "material": 1,
          "mode": 4
        }
      ]
    },
    {
      "name": "polySurface118_BC_MainObjects_0",
      "primitives": [
        {
          "attributes": {
            "NORMAL": 21,
            "POSITION": 20,
            "TEXCOORD_0": 22
          },
          "indices": 23,
          "material": 0,
          "mode": 4
        }
      ]
    },
    {
      "name": "pPlane65_BC_MainObjects_0",
      "primitives": [
        {
          "attributes": {
            "NORMAL": 25,
            "POSITION": 24,
            "TEXCOORD_0": 26
          },
          "indices": 27,
          "material": 0,
          "mode": 4
        }
      ]
    },
    {
      "name": "pCube201_BC_MainObjects_0",
      "primitives": [
        {
          "attributes": {
            "NORMAL": 29,
            "POSITION": 28,
            "TEXCOORD_0": 30
          },
          "indices": 31,
          "material": 0,
          "mode": 4
        }
      ]
    },
    {
      "name": "pCube202_BC_MainObjects_0",
      "primitives": [
        {
          "attributes": {
            "NORMAL": 33,
            "POSITION": 32,
            "TEXCOORD_0": 34
          },
          "indices": 35,
          "material": 0,
          "mode": 4
        }
      ]
    },
    {
      "name": "pCube203_BC_MainObjects_0",
      "primitives": [
        {
          "attributes": {
            "NORMAL": 37,
            "POSITION": 36,
            "TEXCOORD_0": 38
          },
          "indices": 39,
          "material": 0,
          "mode": 4
        }
      ]
    }
  ],
  "nodes": [
    {
      "children": [
        1
      ],
      "matrix": [
        0.01069717388600111,
        0.0,
        0.0,
        0.0,
        0.0,
        2.3752497493314784e-18,
        -0.01069717388600111,
        0.0,
        0.0,
        0.01069717388600111,
        2.3752497493314784e-18,
        0.0,
        0.0,
        0.0,
        0.0,
        1.0
      ],
      "name": "Sketchfab_model"
    },
    {
      "children": [
        2
      ],
      "matrix": [
        1.0,
        0.0,
        0.0,
        0.0,
        0.0,
        0.0,
        1.0,
        0.0,
        0.0,
        -1.0,
        0.0,
        0.0,
        0.0,
        0.0,
        0.0,
        1.0
      ],
      "name": "c3eca152850b425a8f20db4555848f8d.fbx"
    },
    {
      "children": [
        3,
        14,
        16,
        18,
        20,
        22
      ],
      "name": "RootNode"
    },
    {
      "children": [
        4,
        6
      ],
      "name": "Geo_GreekBlackSmith"
    },
    {
      "children": [
        5
      ],
      "name": "polySurface113"
    },
    {
      "mesh": 0,
      "name": "polySurface113_BC_MainObjects_0"
    },
    {
      "children": [
        7,
        9,
        11
      ],
      "name": "polySurface114"
    },
    {
      "children": [
        8
      ],
      "name": "polySurface115"
    },
    {
      "mesh": 1,
      "name": "polySurface115_BC_MainObjects_0"
    },
    {
      "children": [
        10
      ],
      "name": "polySurface116"
    },
    {
      "mesh": 2,
      "name": "polySurface116_BC_MainObjects_0"
    },
    {
      "children": [
        12,
        13
      ],
      "name": "polySurface117"
    },
    {
      "mesh": 3,
      "name": "polySurface117_BC_MainObjects_0"
    },
    {
      "mesh": 4,
      "name": "polySurface117_BC_Vegetation_0"
    },
    {
      "children": [
        15
      ],
      "matrix": [
        0.08258567988004673,
        0.0,
        0.9965839681024126,
        0.0,
        0.0,
        1.0,
        0.0,
        0.0,
        -0.9965839681024126,
        0.0,
        0.08258567988004673,
        0.0,
        115.21031188964844,
        0.0,
        459.0323486328125,
        1.0
      ],
      "name": "polySurface118"
    },
    {
      "mesh": 5,
      "name": "polySurface118_BC_MainObjects_0"
    },
    {
      "children": [
        17
      ],
      "matrix": [
        63.05469512939453,
        0.0,
        0.0,
        0.0,
        0.0,
        1.0,
        0.0,
        0.0,
        0.0,
        0.0,
        63.05469512939453,
        0.0,
        -314.953125,
        34.21928787231445,
        233.01014709472656,
        1.0
      ],
      "name": "pPlane65"
    },
    {
      "mesh": 6,
      "name": "pPlane65_BC_MainObjects_0"
    },
    {
      "children": [
        19
      ],
      "matrix": [
        4.519435875512741e-16,
        0.0,
        -1.0176864862442017,
        0.0,
        0.0,
        1.0403525829315186,
        0.0,
        0.0,
        1.0176864862442017,
        0.0,
        4.519435875512741e-16,
        0.0,
        169.737060546875,
        3.502047061920166,
        -373.3095703125,
        1.0
      ],
      "name": "pCube201"
    },
    {
      "mesh": 7,
      "name": "pCube201_BC_MainObjects_0"
    },
    {
      "children": [
        21
      ],
      "matrix": [
        4.353999753002136e-16,
        0.0,
        -0.9804335832595825,
        0.0,
        0.0,
        1.0133657455444336,
        0.0,
        0.0,
        0.9804335832595825,
        0.0,
        4.353999753002136e-16,
        0.0,
        -32.837371826171875,
        240.38674926757813,
        -360.00811767578125,
        1.0
      ],
      "name": "pCube202"
    },
    {
      "mesh": 8,
      "name": "pCube202_BC_MainObjects_0"
    },
    {
      "children": [
        23
      ],
      "matrix": [
        1.0176864862442017,
        0.0,
        0.0,
        0.0,
        0.0,
        1.0054829120635986,
        0.0,
        0.0,
        0.0,
        0.0,
        1.0176864862442017,
        0.0,
        3.9503321647644043,
        -0.3659668564796448,
        1.9159637689590454,
        1.0
      ],
      "name": "pCube203"
    },
    {
      "mesh": 9,
      "name": "pCube203_BC_MainObjects_0"
    }
  ],
  "samplers": [
    {
      "magFilter": 9729,
      "minFilter": 9987,
      "wrapS": 10497,
      "wrapT": 10497
    }
  ],
  "scene": 0,
  "scenes": [
    {
      "name": "Sketchfab_Scene",
      "nodes": [
        0
      ]
    }
  ],
  "textures": [
    {
      "sampler": 0,
      "source": 0
    },
    {
      "sampler": 0,
      "source": 1
    }
  ]
}
