{
  "accessors": [
    {
      "bufferView": 2,
      "componentType": 5126,
      "count": 10560,
      "max": [
        275.01519775390625,
        -184.95013427734375,
        540.6747436523438
      ],
      "min": [
        -996.1905517578125,
        -1271.171142578125,
        -138.52163696289063
      ],
      "type": "VEC3"
    },
    {
      "bufferView": 2,
      "byteOffset": 126720,
      "componentType": 5126,
      "count": 10560,
      "max": [
        1.0,
        1.0,
        1.0
      ],
      "min": [
        -1.0,
        -1.0,
        -1.0
      ],
      "type": "VEC3"
    },
    {
      "bufferView": 1,
      "componentType": 5126,
      "count": 10560,
      "max": [
        0.9935563802719116,
        0.9936197400093079
      ],
      "min": [
        0.0,
        0.0
      ],
      "type": "VEC2"
    },
    {
      "bufferView": 0,
      "componentType": 5125,
      "count": 25482,
      "type": "SCALAR"
    },
    {
      "bufferView": 2,
      "byteOffset": 253440,
      "componentType": 5126,
      "count": 98,
      "max": [
        105.47201538085938,
        -361.212158203125,
        79.35676574707031
      ],
      "min": [
        -777.261962890625,
        -1158.1424560546875,
        -13.936668395996094
      ],
      "type": "VEC3"
    },
    {
      "bufferView": 2,
      "byteOffset": 254616,
      "componentType": 5126,
      "count": 98,
      "max": [
        0.997026801109314,
        0.99703049659729,
        0.9999094009399414
      ],
      "min": [
        -0.997026801109314,
        -0.9970304369926453,
        -0.989389181137085
      ],
      "type": "VEC3"
    },
    {
      "bufferView": 1,
      "byteOffset": 84480,
      "componentType": 5126,
      "count": 98,
      "max": [
        2.772357940673828,
        22.839984893798828
      ],
      "min": [
        -0.7012405395507813,
        0.007976332679390907
      ],
      "type": "VEC2"
    },
    {
      "bufferView": 0,
      "byteOffset": 101928,
      "componentType": 5125,
      "count": 174,
      "type": "SCALAR"
    }
  ],
  "asset": {
    "extras": {
      "author": "ThorvaldMortele (https://sketchfab.com/ThorvaldMortele)",
      "license": "CC-BY-4.0 (http://creativecommons.org/licenses/by/4.0/)",
      "source": "https://sketchfab.com/3d-models/greek-temple-6909cd9bf69d4b948141fbab05f5c5a0",
      "title": "Greek Temple"
    },
    "generator": "Sketchfab-12.68.0",
    "version": "2.0"
  },
  "bufferViews": [
    {
      "buffer": 0,
      "byteLength": 102624,
      "name": "floatBufferViews",
      "target": 34963
    },
    {
      "buffer": 0,
      "byteLength": 85264,
      "byteOffset": 102624,
      "byteStride": 8,
      "name": "floatBufferViews",
      "target": 34962
    },
    {
      "buffer": 0,
      "byteLength": 255792,
      "byteOffset": 187888,
      "byteStride": 12,
      "name": "floatBufferViews",
      "target": 34962
    }
  ],
  "buffers": [
    {
      "byteLength": 443680,
      "uri": "scene.bin"
    }
  ],
  "images": [
    {
      "uri": "textures/Material_108_baseColor.jpeg"
    },
    {
      "uri": "textures/Material_109_baseColor.jpeg"
    }
  ],
  "materials": [
    {
      "doubleSided": true,
      "name": "Material_108",
      "pbrMetallicRoughness": {
        "baseColorTexture": {
          "index": 0
        },
        "metallicFactor": 0.0,
        "roughnessFactor": 0.6
      }
    },
    {
      "doubleSided": true,
      "name": "Material_109",
      "pbrMetallicRoughness": {
        "baseColorTexture": {
          "index": 1
        },
        "metallicFactor": 0.0,
        "roughnessFactor": 0.6
      }
    }
  ],
  "meshes": [
    {
      "name": "Building_Material #108_0",
      "primitives": [
        {
          "attributes": {
            "NORMAL": 1,
            "POSITION": 0,
            "TEXCOORD_0": 2
          },
          "indices": 3,
          "material": 0,
          "mode": 4
        }
      ]
    },
    {
      "name": "Building_Material #109_0",
      "primitives": [
        {
          "attributes": {
            "NORMAL": 5,
            "POSITION": 4,
            "TEXCOORD_0": 6
          },
          "indices": 7,
          "material": 1,
          "mode": 4
        }
      ]
    }
  ],
  "nodes": [
    {
      "children": [
        1
      ],
      "matrix": [
        1.0,
        0.0,
        0.0,
        0.0,
        0.0,
        2.220446049250313e-16,
        -1.0,
        0.0,
        0.0,
        1.0,
        2.220446049250313e-16,
        0.0,
        0.0,
        0.0,
        0.0,
        1.0
      ],
      "name": "Sketchfab_model"
    },
    {
      "children": [
        2
      ],
      "matrix": [
        1.0,
        0.0,
        0.0,
        0.0,
        0.0,
        0.0,
        1.0,
        0.0,
        0.0,
        -1.0,
        0.0,
        0.0,
        0.0,
        0.0,
        0.0,
        1.0
      ],
      "name": "7aba0d60195a4394931bb2764fa0707d.fbx"
    },
    {
      "children": [
        3
      ],
      "name": "RootNode"
    },
    {
      "children": [
        4
      ],
      "matrix": [
        0.9970267074072843,
        0.010062048469114446,
        -0.07639698879664457,
        0.0,
        -0.07648757913422947,
        0.008948534734967928,
        -0.9970303776537013,
        0.0,
        -0.009348526877237293,
        0.9999093353433113,
        0.009691549851458592,
        0.0,
        -10.72320556640625,
        202.67807006835938,
        -14.6953125,
        1.0
      ],
      "name": "Building"
    },
    {
      "children": [
        5,
        6
      ],
      "matrix": [
        1.0,
        0.0,
        -0.0,
        0.0,
        0.0,
        1.0,
        0.0,
        0.0,
        0.0,
        0.0,
        1.0,
        0.0,
        338.1599426269531,
        755.2637329101563,
        -201.0765380859375,
        1.0
      ],
      "name": "Object_4"
    },
    {
      "mesh": 0,
      "name": "Building_Material #108_0"
    },
    {
      "mesh": 1,
      "name": "Building_Material #109_0"
    }
  ],
  "samplers": [
    {
      "magFilter": 9729,
      "minFilter": 9987,
      "wrapS": 10497,
      "wrapT": 10497
    }
  ],
  "scene": 0,
  "scenes": [
    {
      "name": "Sketchfab_Scene",
      "nodes": [
        0
      ]
    }
  ],
  "textures": [
    {
      "sampler": 0,
      "source": 0
    },
    {
      "sampler": 0,
      "source": 1
    }
  ]
}
